

<svg version="1.0" xmlns="http://www.w3.org/2000/svg"
 width="521.000000pt" height="479.000000pt" viewBox="0 0 521.000000 479.000000"
 preserveAspectRatio="xMidYMid meet"> 

<g transform="translate(0.000000,479.000000) scale(0.100000,-0.100000)"
fill="#000000" stroke="none">
<path d="M3894 3930 c-254 -46 -476 -133 -669 -263 -187 -126 -383 -324 -515
-520 -25 -36 -47 -67 -50 -67 -3 0 -117 101 -255 224 -137 123 -251 223 -252
222 -1 -1 9 -24 22 -51 160 -323 -162 -1085 -677 -1607 -275 -279 -536 -426
-738 -416 -43 1 -76 0 -72 -4 16 -15 138 -49 196 -55 202 -19 475 114 748 365
l62 57 -34 -49 c-55 -77 -208 -225 -306 -294 -94 -67 -204 -123 -318 -163 -47
-16 -64 -26 -55 -32 109 -65 350 -203 444 -252 213 -113 351 -155 509 -155
111 0 173 14 273 60 197 91 376 270 691 685 418 552 573 721 802 875 223 151
497 190 739 107 27 -10 41 -11 41 -4 0 6 -12 49 -27 95 -31 94 -40 102 -123
102 -54 0 -52 -4 -65 105 -3 28 -8 62 -11 78 -5 26 -4 27 40 27 36 0 46 4 46
16 0 15 -96 312 -157 482 l-25 73 -86 -3 -86 -3 -27 85 c-38 117 -38 116 19
124 26 4 61 9 79 12 l32 6 -27 76 c-21 59 -32 77 -47 79 -11 1 -66 -7 -121
-17z m-205 -329 c43 -114 43 -110 -14 -132 -27 -10 -89 -39 -137 -64 -48 -24
-90 -40 -92 -36 -3 5 -19 46 -36 91 -25 68 -28 86 -18 96 20 20 228 124 249
124 12 0 25 -21 48 -79z m-491 -313 l42 -76 -33 -27 c-17 -15 -71 -65 -120
-112 -48 -46 -91 -83 -96 -81 -5 2 -30 29 -56 61 -45 55 -47 60 -34 84 19 35
241 245 249 236 4 -5 25 -43 48 -85z m792 -360 c6 -24 18 -67 27 -97 16 -56
11 -70 -27 -71 -9 0 -57 -13 -107 -29 l-92 -28 -10 26 c-5 14 -21 57 -35 94
l-26 68 37 16 c48 21 183 62 205 62 12 1 21 -12 28 -41z m-1210 -69 c34 -41
48 -65 42 -72 -5 -7 -44 -57 -87 -112 -42 -55 -80 -103 -84 -108 -4 -4 -31 22
-59 58 l-53 65 88 115 c48 63 90 115 95 115 4 0 30 -27 58 -61z m755 -211 l34
-66 -57 -43 c-31 -24 -79 -63 -105 -88 -27 -25 -51 -40 -56 -35 -4 5 -29 35
-56 67 l-48 58 44 46 c24 25 76 72 114 104 80 67 73 70 130 -43z m-1082 -236
l46 -59 -81 -117 c-44 -64 -84 -116 -88 -116 -4 0 -31 25 -59 55 l-52 55 67
98 c37 53 76 109 86 125 11 15 23 25 27 23 4 -3 28 -31 54 -64z m686 -120 l50
-64 -64 -79 c-35 -44 -66 -81 -68 -82 -2 -1 -27 27 -55 62 l-52 64 33 41 c18
23 48 60 66 84 18 24 35 42 36 40 2 -2 26 -32 54 -66z m-1012 -324 c29 -29 53
-56 53 -61 0 -10 -202 -266 -211 -267 -3 0 -29 26 -57 59 l-51 58 91 114 c50
63 96 122 102 132 6 9 13 17 16 17 2 0 28 -23 57 -52z m727 -42 c25 -30 46
-59 46 -65 0 -9 -85 -126 -137 -191 -4 -5 -38 35 -79 92 l-26 36 69 91 c37 50
71 91 74 91 4 0 27 -24 53 -54z m-282 -483 c-17 -21 -50 -57 -74 -80 l-43 -42
-48 60 -48 60 72 79 71 79 50 -59 50 -60 -30 -37z m-822 70 l52 -57 -53 -48
c-93 -82 -125 -101 -183 -106 -50 -4 -56 -2 -91 29 l-36 34 63 47 c35 26 90
72 123 102 33 30 63 55 66 56 4 0 30 -26 59 -57z m494 -316 l38 -47 -43 -40
c-68 -61 -103 -75 -153 -60 -47 14 -98 48 -94 61 2 5 46 42 98 83 71 55 98 71
105 62 6 -7 27 -33 49 -59z"/>
<path d="M1700 3392 c-121 -41 -241 -123 -394 -271 -340 -331 -625 -835 -643
-1137 -7 -117 7 -173 54 -214 41 -37 70 -44 139 -37 203 21 540 318 795 701
204 307 327 646 299 822 -21 129 -116 180 -250 136z m-42 -204 c7 -7 12 -31
12 -54 0 -65 -61 -175 -145 -260 -142 -145 -214 -91 -123 93 49 101 181 232
234 233 5 0 15 -5 22 -12z m80 -250 c62 -62 -126 -365 -245 -394 -100 -26 -45
179 86 315 74 77 132 106 159 79z m-457 -89 c38 -71 -111 -314 -228 -370 l-46
-22 -19 23 c-24 30 -18 61 28 158 36 74 125 181 179 214 40 24 72 23 86 -3z
m47 -256 c4 -26 -44 -83 -69 -83 -23 0 -24 21 -4 60 26 50 67 63 73 23z m-228
-208 c49 -59 -114 -328 -230 -380 -38 -17 -42 -17 -57 -2 -55 55 57 272 191
369 43 31 77 36 96 13z m250 -10 c29 -77 -100 -293 -216 -361 -106 -62 -120
40 -27 194 89 147 217 235 243 167z"/>
</g>
</svg>
